<svg version="1.1" xmlns="http://www.w3.org/2000/svg" viewBox="0 0 1882.3483597839252 1433.9936729414808" width="5647.045079351776" height="4301.981018824443" filter="invert(93%) hue-rotate(180deg)">
  <!-- svg-source:excalidraw -->
  
  <defs>
    <style class="style-fonts">
      @font-face {
        font-family: "Virgil";
        src: url("https://excalidraw.com/Virgil.woff2");
      }
      @font-face {
        font-family: "Cascadia";
        src: url("https://excalidraw.com/Cascadia.woff2");
      }
      @font-face {
        font-family: "Assistant";
        src: url("https://excalidraw.com/Assistant-Regular.woff2");
      }
    </style>
    
  </defs>
  <rect x="0" y="0" width="1882.3483597839252" height="1433.9936729414808" fill="#ffffff"></rect><g stroke-linecap="round" transform="translate(320.27454351502286 366.2189162383345) rotate(0 107.52260238451439 55.97066973440474)"><path d="M0.93 2.49 C54.87 6.01, 115.65 4.96, 213.97 -2.26 M-0.12 -1.69 C52.66 2.39, 103.97 -0.01, 215.52 -0.27 M214.94 2.46 C212.64 27.42, 213.36 47.75, 214.34 109.56 M214.2 0.71 C215.14 38.26, 212.63 77.01, 214.5 113.27 M213.96 110.7 C143.77 114.83, 76.85 113.58, -3.21 112.39 M215.6 111.76 C141.08 113.66, 62.1 111.02, 1.71 110.24 M1.6 112.26 C-1.52 72.15, 4.38 26.96, -2.55 2.02 M-1.97 113.39 C-0.23 72.85, 0.38 34.42, -0.29 -1.19" stroke="#1e1e1e" stroke-width="2" fill="none"></path></g><g transform="translate(345.79714589953727 405.38958597273916) rotate(0 82 16.799999999999997)"><text x="82" y="27.0375" font-family="Cascadia, Segoe UI Emoji" font-size="28px" fill="#1e1e1e" text-anchor="middle" style="white-space: pre;" direction="ltr" dominant-baseline="alphabetic">Instructor</text></g><g stroke-linecap="round" transform="translate(320.7796382556006 663.6661110795559) rotate(0 107.52260238451439 55.97066973440471)"><path d="M0.75 -0.49 C69.57 -2.65, 141.41 -2.34, 217.42 0.24 M1.65 -0.22 C61.29 -2.89, 119.81 -4.06, 216.37 -0.19 M217.43 2.93 C213.05 42.25, 211.53 83.5, 218.47 113.12 M216.21 -0.21 C213.83 34.14, 216.18 68.68, 215.92 112.63 M217.59 113.51 C128.35 108.82, 42.27 114.61, -0.24 109.76 M216.46 113.59 C140.02 111.48, 66.38 110.01, 1.54 110.49 M1.49 115.94 C-3.09 68.88, -2.32 23.06, -1.67 -3.94 M-1.58 113.64 C-1.08 68.94, -2.35 27.48, -0.74 1.26" stroke="#1e1e1e" stroke-width="2" fill="none"></path></g><g transform="translate(379.1022398771756 702.8367808139606) rotate(0 49.20000076293945 16.80000000000001)"><text x="49.20000076293945" y="27.0375" font-family="Cascadia, Segoe UI Emoji" font-size="28px" fill="#1e1e1e" text-anchor="middle" style="white-space: pre;" direction="ltr" dominant-baseline="alphabetic">Course</text></g><g stroke-linecap="round" transform="translate(315.37887474846616 963.4084857255186) rotate(0 107.52260238451439 55.97066973440474)"><path d="M2.1 3.03 C83.47 2.3, 168.33 0.78, 212.08 -2.49 M1.41 -0.73 C82.73 -1.88, 164.74 -3.01, 214.99 -1.09 M214.34 -1.22 C215.18 31.41, 217.79 68.87, 214.65 109.98 M215.92 -1.89 C217.07 24.81, 215.09 50.39, 214.21 112.59 M213.9 110.66 C161.87 115.77, 102.31 114.68, -2.35 113.5 M216.05 110.61 C133.93 112.57, 49.75 110.55, 0.83 112.36 M2.27 114 C-1.4 70.66, 2.4 32.2, 3.07 2.56 M-0.71 113.22 C-2.83 81.5, -1.32 53.35, 0.07 -1.92" stroke="#1e1e1e" stroke-width="2" fill="none"></path></g><g transform="translate(357.3014786588595 1002.5791554599234) rotate(0 65.5999984741211 16.80000000000001)"><text x="65.5999984741211" y="27.0375" font-family="Cascadia, Segoe UI Emoji" font-size="28px" fill="#1e1e1e" text-anchor="middle" style="white-space: pre;" direction="ltr" dominant-baseline="alphabetic">Students</text></g><g mask="url(#mask-ajsgzZ_wD2Uy_EY11rbhF)" stroke-linecap="round"><g transform="translate(428.30224064011486 498.2054770214472) rotate(0 2.7003817535672283 76.96087997666618)"><path d="M-3.33 -3.92 C-3.43 32.94, 0.83 67.13, 3.56 155.55 M0.75 1.03 C0.01 58.12, 0.76 113.47, 6.2 154.13" stroke="#1e1e1e" stroke-width="2" fill="none"></path></g><g transform="translate(428.30224064011486 498.2054770214472) rotate(0 2.7003817535672283 76.96087997666618)"><path d="M-6.14 129.56 C-3.43 135.99, 0.47 141.07, 5.29 154.94 M-4.1 132.04 C-0.37 140.57, 2.94 148.2, 6.61 154.23" stroke="#1e1e1e" stroke-width="2" fill="none"></path></g><g transform="translate(428.30224064011486 498.2054770214472) rotate(0 2.7003817535672283 76.96087997666618)"><path d="M10.89 127.99 C9.83 134.74, 9.95 140.17, 5.29 154.94 M12.93 130.47 C10.36 139.45, 7.4 147.66, 6.61 154.23" stroke="#1e1e1e" stroke-width="2" fill="none"></path></g></g><mask id="mask-ajsgzZ_wD2Uy_EY11rbhF"><rect x="0" y="0" fill="#fff" width="533.7030041472493" height="752.1272369747796"></rect><rect x="406.40262201221236" y="558.3663569981134" fill="#000" width="49.20000076293945" height="33.6" opacity="1"></rect></mask><g transform="translate(406.4026220122124 558.3663569981134) rotate(0 23.33834072088183 15.654306608438532)"><text x="24.600000381469727" y="27.0375" font-family="Cascadia, Segoe UI Emoji" font-size="28px" fill="#1e1e1e" text-anchor="middle" style="white-space: pre;" direction="ltr" dominant-baseline="alphabetic">has</text></g><g mask="url(#mask-SxXAnf0WUzD2RCLf9PKdM)" stroke-linecap="round"><g transform="translate(439.1037676543837 787.1463246531412) rotate(0 -1.3501908767835573 86.41221611415153)"><path d="M-1.89 -0.67 C-4.18 42.78, -7.2 90.03, -1.36 171.84 M0.02 1.44 C-1 47.37, -1.38 95.06, -2.77 171.72" stroke="#1e1e1e" stroke-width="2" fill="none"></path></g><g transform="translate(439.1037676543837 787.1463246531412) rotate(0 -1.3501908767835573 86.41221611415153)"><path d="M-11.88 147.76 C-9.31 153.67, -8.44 161.59, -2.1 171.23 M-10.92 148.81 C-8.51 154.41, -6.06 160.82, -2.8 171.17" stroke="#1e1e1e" stroke-width="2" fill="none"></path></g><g transform="translate(439.1037676543837 787.1463246531412) rotate(0 -1.3501908767835573 86.41221611415153)"><path d="M5.22 148.04 C3.52 154.05, 0.11 161.9, -2.1 171.23 M6.18 149.1 C3.84 154.51, 1.55 160.84, -2.8 171.17" stroke="#1e1e1e" stroke-width="2" fill="none"></path></g></g><mask id="mask-SxXAnf0WUzD2RCLf9PKdM"><rect x="0" y="0" fill="#fff" width="541.8041494079508" height="1059.9707568814442"></rect><rect x="380.35357525172117" y="856.7585407672927" fill="#000" width="114.80000305175781" height="33.6" opacity="1"></rect></mask><g transform="translate(380.3535752517213 856.7585407672927) rotate(0 56.38816019072681 15.974397557973816)"><text x="57.400001525878906" y="27.0375" font-family="Cascadia, Segoe UI Emoji" font-size="28px" fill="#1e1e1e" text-anchor="middle" style="white-space: pre;" direction="ltr" dominant-baseline="alphabetic">enrolls</text></g><g mask="url(#mask-1Klqqrrp1LfdW09CddUYq)" stroke-linecap="round"><g transform="translate(301.38429822245433 1015.6096675324725) rotate(0 -81.63464698548671 2.1990220876862736)"><path d="M0.24 -2.27 C-40.76 -2.07, -79.52 6.29, -160.73 3.83 M1.09 -1.09 C-65.33 -1.08, -128.59 3.99, -162.19 5.62" stroke="#1e1e1e" stroke-width="2" fill="none"></path></g><g transform="translate(301.38429822245433 1015.6096675324725) rotate(0 -81.63464698548671 2.1990220876862736)"><path d="M-162.96 -10.21 C-162.96 -7.12, -162.21 -0.7, -161.24 5.41 M-162.64 -9.76 C-163.43 -4.19, -162.96 2.91, -161.78 6.08" stroke="#1e1e1e" stroke-width="2" fill="none"></path></g><g transform="translate(301.38429822245433 1015.6096675324725) rotate(0 -81.63464698548671 2.1990220876862736)"><path d="M-161.23 19.74 C-161.9 15.47, -161.58 14.51, -161.24 5.41 M-160.91 20.19 C-162.2 14.09, -162.4 9.51, -161.78 6.08" stroke="#1e1e1e" stroke-width="2" fill="none"></path></g></g><mask id="mask-1Klqqrrp1LfdW09CddUYq"><rect x="0" y="0" fill="#fff" width="564.6535921934278" height="1120.007711707845"></rect><rect x="145.9496481852098" y="1001.0086896201587" fill="#000" width="147.60000610351562" height="33.6" opacity="1"></rect></mask><g transform="translate(145.9496481852098 1001.0086896201586) rotate(0 74.88699249923229 16.27364976257087)"><text x="73.80000305175781" y="27.0375" font-family="Cascadia, Segoe UI Emoji" font-size="28px" fill="#1e1e1e" text-anchor="middle" style="white-space: pre;" direction="ltr" dominant-baseline="alphabetic">stored on</text></g><g transform="translate(10 1001.3057611001436) rotate(0 57.400001525878906 16.80000000000001)"><text x="0" y="27.0375" font-family="Cascadia, Segoe UI Emoji" font-size="28px" fill="#2f9e44" text-anchor="start" style="white-space: pre;" direction="ltr" dominant-baseline="alphabetic">MongoDB</text></g><g stroke-linecap="round" transform="translate(693.9308447771227 531.0230825484024) rotate(0 107.52260238451436 55.97066973440474)"><path d="M1.13 -2.22 C62.55 -1.01, 129.62 2.45, 215.36 2.79 M1.14 -0.39 C76.8 2.28, 153.06 2.05, 213.87 -0.61 M215.25 1.68 C216.18 25.11, 211.46 52.77, 211.09 114.25 M214.63 1.34 C211.49 26.36, 213.69 54.07, 213.41 113.73 M216.97 108.78 C150.93 116.44, 88.55 111.7, 0.37 114.48 M214.09 110.7 C159.99 114.72, 105.03 114.57, 0.47 110.73 M-1.68 114.72 C-4.51 74.22, 0.48 34.22, -2.64 2.85 M0.95 111.07 C0.41 71.39, 1.44 35.82, -1.33 1.06" stroke="#1e1e1e" stroke-width="2" fill="none"></path></g><g transform="translate(711.2534502133949 570.193752282807) rotate(0 90.19999694824219 16.80000000000001)"><text x="90.19999694824219" y="27.0375" font-family="Cascadia, Segoe UI Emoji" font-size="28px" fill="#1e1e1e" text-anchor="middle" style="white-space: pre;" direction="ltr" dominant-baseline="alphabetic">Assessments</text></g><g mask="url(#mask-Dr3w4O_huDiN_uZWnF02x)" stroke-linecap="round"><g transform="translate(545.2720133432108 411.2196298088505) rotate(0 112.19624838763201 56.09812419381595)"><path d="M-2.46 -1.37 C80.94 2.23, 162.67 -3, 227.41 1.82 M1.56 0.77 C46.92 1.28, 93.27 4.07, 225.34 1.09 M220.46 -1.59 C220.72 37, 223.17 68.72, 224.9 108.61 M222.89 3.7 C225.54 42.71, 225.47 86.03, 222.8 110.36" stroke="#1e1e1e" stroke-width="2" fill="none"></path></g><g transform="translate(545.2720133432108 411.2196298088505) rotate(0 112.19624838763201 56.09812419381595)"><path d="M214.34 85.57 C218.58 96.94, 221.63 102.15, 224.55 110.33 M216.68 86.81 C217.38 90.72, 218.47 97.14, 223.35 109.91" stroke="#1e1e1e" stroke-width="2" fill="none"></path></g><g transform="translate(545.2720133432108 411.2196298088505) rotate(0 112.19624838763201 56.09812419381595)"><path d="M231.4 86.67 C229.49 97.73, 226.39 102.54, 224.55 110.33 M233.75 87.91 C230.86 91.49, 228.38 97.68, 223.35 109.91" stroke="#1e1e1e" stroke-width="2" fill="none"></path></g></g><mask id="mask-Dr3w4O_huDiN_uZWnF02x"><rect x="0" y="0" fill="#fff" width="869.6645101184748" height="623.4158781964825"></rect><rect x="712.2645085925959" y="396.28956728197767" fill="#000" width="114.80000305175781" height="33.6" opacity="1"></rect></mask><g transform="translate(712.264508592596 396.2895672819776) rotate(0 -54.522044882109924 69.31298920648706)"><text x="57.400001525878906" y="27.0375" font-family="Cascadia, Segoe UI Emoji" font-size="28px" fill="#1e1e1e" text-anchor="middle" style="white-space: pre;" direction="ltr" dominant-baseline="alphabetic">uploads</text></g><g mask="url(#mask-sVbIXqsHvDlPyOIMI-orJ)" stroke-linecap="round"><g transform="translate(924.8693203880321 548.5624291476976) rotate(0 63.78191807297259 -59.45685413976888)"><path d="M1.24 0.16 C27.75 -29.2, 54.77 -53.53, 125.07 -117.69 M-0.34 -1.07 C37.82 -35.15, 74.11 -72.11, 126.95 -119" stroke="#1e1e1e" stroke-width="2" fill="none"></path></g><g transform="translate(924.8693203880321 548.5624291476976) rotate(0 63.78191807297259 -59.45685413976888)"><path d="M137.52 -107.86 C134.87 -111.23, 132.37 -113.05, 126.02 -118.55 M136.93 -108.32 C134.22 -111.11, 130.07 -114.7, 126.72 -119.04" stroke="#1e1e1e" stroke-width="2" fill="none"></path></g><g transform="translate(924.8693203880321 548.5624291476976) rotate(0 63.78191807297259 -59.45685413976888)"><path d="M117.32 -130.03 C119.07 -128.64, 120.98 -125.63, 126.02 -118.55 M116.73 -130.49 C120.42 -126.43, 122.46 -123.23, 126.72 -119.04" stroke="#1e1e1e" stroke-width="2" fill="none"></path></g></g><mask id="mask-sVbIXqsHvDlPyOIMI-orJ"><rect x="0" y="0" fill="#fff" width="1152.4331565339771" height="767.4761374272354"></rect><rect x="939.4512376980653" y="472.3055750079287" fill="#000" width="98.4000015258789" height="33.6" opacity="1"></rect></mask><g transform="translate(939.4512376980654 472.3055750079288) rotate(0 48.7269096821546 16.832888673245932)"><text x="49.20000076293945" y="27.0375" font-family="Cascadia, Segoe UI Emoji" font-size="28px" fill="#1e1e1e" text-anchor="middle" style="white-space: pre;" direction="ltr" dominant-baseline="alphabetic">images</text></g><g transform="translate(1054.9214683084117 371.7025082481482) rotate(0 59.601636674796055 50.400000000000006)"><text x="59.60163667479605" y="27.0375" font-family="Cascadia, Segoe UI Emoji" font-size="28px" fill="#2f9e44" text-anchor="middle" style="white-space: pre;" direction="ltr" dominant-baseline="alphabetic">Amazon </text><text x="59.60163667479605" y="60.6375" font-family="Cascadia, Segoe UI Emoji" font-size="28px" fill="#2f9e44" text-anchor="middle" style="white-space: pre;" direction="ltr" dominant-baseline="alphabetic">S3 </text><text x="59.60163667479605" y="94.23750000000001" font-family="Cascadia, Segoe UI Emoji" font-size="28px" fill="#2f9e44" text-anchor="middle" style="white-space: pre;" direction="ltr" dominant-baseline="alphabetic">Buckets</text></g><g stroke-linecap="round" transform="translate(681.7774488814964 125.11919642038904) rotate(0 153.33487279643026 50.48831177443438)"><path d="M-1.25 1.61 C81.93 0.27, 166.38 -1.65, 309.34 -0.39 M0.89 0.61 C101.24 3.07, 203.45 2.93, 308.1 0.07 M303.55 1.8 C302.96 33.72, 304.95 57.87, 306.17 102.67 M307.15 0.84 C305.84 22.56, 305.38 40.94, 307.65 99.85 M307.6 99.42 C219.73 95, 129.86 98.98, -0.31 101.36 M307.18 101.35 C235.11 104.58, 165.94 102.72, -0.77 101.45 M0.38 104.67 C2.03 68.37, 5.56 42.85, -2.34 -2.05 M1.63 99.63 C1.47 69.16, 2.62 39.63, 1.4 1.66" stroke="#1e1e1e" stroke-width="2" fill="none"></path></g><g transform="translate(736.7123201520478 158.8075081948234) rotate(0 98.4000015258789 16.8)"><text x="98.4000015258789" y="27.0375" font-family="Cascadia, Segoe UI Emoji" font-size="28px" fill="#1e1e1e" text-anchor="middle" style="white-space: pre;" direction="ltr" dominant-baseline="alphabetic">RAG Pipeline</text></g><g mask="url(#mask-TChOTFbn23bboFL0Ry3rS)" stroke-linecap="round"><g transform="translate(444.295390317472 356.99144308816176) rotate(0 114.06618887205889 -92.53857836493567)"><path d="M-0.26 3.58 C0.05 -36.32, 4.3 -76.78, -0.88 -179.69 M0.8 -0.81 C-2.08 -70.58, 0.73 -142.78, 0.09 -182.01 M2.31 -182.64 C52.44 -181.25, 100.02 -184.15, 229.48 -181.69 M0.04 -183.81 C61.33 -181.89, 125.71 -183.37, 226.98 -186.19" stroke="#1e1e1e" stroke-width="2" fill="none"></path></g><g transform="translate(444.295390317472 356.99144308816176) rotate(0 114.06618887205889 -92.53857836493567)"><path d="M203.59 -175.24 C207.06 -177.7, 214.14 -180.41, 226.55 -184.57 M204.12 -177.44 C212.24 -180.18, 222.75 -184.08, 227.03 -185.73" stroke="#1e1e1e" stroke-width="2" fill="none"></path></g><g transform="translate(444.295390317472 356.99144308816176) rotate(0 114.06618887205889 -92.53857836493567)"><path d="M203.15 -192.34 C206.55 -191.16, 213.72 -190.22, 226.55 -184.57 M203.68 -194.53 C212.02 -190.59, 222.7 -187.8, 227.03 -185.73" stroke="#1e1e1e" stroke-width="2" fill="none"></path></g></g><mask id="mask-TChOTFbn23bboFL0Ry3rS"><rect x="0" y="0" fill="#fff" width="772.4277680615899" height="642.0685998180331"></rect><rect x="378.695391843351" y="140.46634632026564" fill="#000" width="131.1999969482422" height="67.2" opacity="1"></rect></mask><g transform="translate(378.695391843351 140.46634632026564) rotate(0 179.89880900052276 125.22089525493777)"><text x="65.5999984741211" y="27.0375" font-family="Cascadia, Segoe UI Emoji" font-size="28px" fill="#1e1e1e" text-anchor="middle" style="white-space: pre;" direction="ltr" dominant-baseline="alphabetic">source</text><text x="65.5999984741211" y="60.6375" font-family="Cascadia, Segoe UI Emoji" font-size="28px" fill="#1e1e1e" text-anchor="middle" style="white-space: pre;" direction="ltr" dominant-baseline="alphabetic">material</text></g><g mask="url(#mask-ca9rkjXB_G7tfj2mfY0IV)" stroke-linecap="round"><g transform="translate(1001.1924140908741 169.9211145780258) rotate(0 146.01251885628187 -3.1631081047974874)"><path d="M0.68 2.07 C114.41 -1.09, 222.62 -2.61, 289.99 -4.93 M0.52 -0.35 C63.26 -4.15, 127.35 -3.91, 293.36 -5.75" stroke="#1e1e1e" stroke-width="2" fill="none"></path></g><g transform="translate(1001.1924140908741 169.9211145780258) rotate(0 146.01251885628187 -3.1631081047974874)"><path d="M270.42 4.42 C280.64 -1.77, 287.19 -4.53, 292 -4.82 M270.31 2.8 C274.71 0.69, 280 -0.14, 294.26 -5.37" stroke="#1e1e1e" stroke-width="2" fill="none"></path></g><g transform="translate(1001.1924140908741 169.9211145780258) rotate(0 146.01251885628187 -3.1631081047974874)"><path d="M270.24 -12.68 C280.6 -12.32, 287.22 -8.53, 292 -4.82 M270.13 -14.3 C274.52 -12.67, 279.86 -9.77, 294.26 -5.37" stroke="#1e1e1e" stroke-width="2" fill="none"></path></g></g><mask id="mask-ca9rkjXB_G7tfj2mfY0IV"><rect x="0" y="0" fill="#fff" width="1393.2174518034378" height="276.24733078762074"></rect><rect x="1098.0049321842164" y="133.1580064732283" fill="#000" width="98.4000015258789" height="67.2" opacity="1"></rect></mask><g transform="translate(1098.0049321842162 133.1580064732283) rotate(0 50.128164488122366 34.91985656595)"><text x="49.20000076293945" y="27.0375" font-family="Cascadia, Segoe UI Emoji" font-size="28px" fill="#1e1e1e" text-anchor="middle" style="white-space: pre;" direction="ltr" dominant-baseline="alphabetic">model</text><text x="49.20000076293945" y="60.6375" font-family="Cascadia, Segoe UI Emoji" font-size="28px" fill="#1e1e1e" text-anchor="middle" style="white-space: pre;" direction="ltr" dominant-baseline="alphabetic">answer</text></g><g stroke-linecap="round" transform="translate(1315.4931737500242 104.17587806297522) rotate(0 174.02216298137603 87.36211562384281)"><path d="M-1.63 -0.53 C79.94 -2.15, 157.93 -1.04, 349.47 -0.1 M-0.63 1.1 C87.63 1.99, 173.46 1.3, 347.79 -0.39 M345.17 -0.02 C345.14 59.15, 347.87 117.03, 349.69 170.89 M346.74 0.01 C346 42.59, 347.7 84.5, 346.4 175.3 M346.77 173.41 C268.45 171.52, 187.19 172.76, -1.37 175.59 M346.92 175.34 C255.96 175.58, 164.89 176.72, -0.21 174.42 M1.99 171.72 C-2.88 114.61, -5.51 57.71, 1.36 0.97 M-0.63 173.22 C-2.55 133.85, -2.01 92.26, 0.57 -0.42" stroke="#1e1e1e" stroke-width="2" fill="none"></path></g><g transform="translate(1391.1153352055214 157.93799368681803) rotate(0 98.4000015258789 33.6)"><text x="98.4000015258789" y="27.0375" font-family="Cascadia, Segoe UI Emoji" font-size="28px" fill="#1e1e1e" text-anchor="middle" style="white-space: pre;" direction="ltr" dominant-baseline="alphabetic">ChatGPT/LLM </text><text x="98.4000015258789" y="60.6375" font-family="Cascadia, Segoe UI Emoji" font-size="28px" fill="#1e1e1e" text-anchor="middle" style="white-space: pre;" direction="ltr" dominant-baseline="alphabetic">FineTuning</text></g><g mask="url(#mask-ve4nSvCXt3eb01na3FEEB)" stroke-linecap="round"><g transform="translate(809.4147773841157 656.8831261144481) rotate(0 -4.358582652426321 209.21196731646347)"><path d="M1.08 -1.04 C-4.16 105.76, -7.2 210.49, -8.61 419.21 M0.25 -0.78 C-8.06 139.64, -9.76 281.11, -9.07 419.46" stroke="#1e1e1e" stroke-width="2" fill="none"></path></g><g transform="translate(809.4147773841157 656.8831261144481) rotate(0 -4.358582652426321 209.21196731646347)"><path d="M-16.58 394.98 C-15.23 401.65, -13.85 406.27, -8.97 420.19 M-17.36 395.22 C-15.69 402.94, -11.68 411.62, -9.4 420.42" stroke="#1e1e1e" stroke-width="2" fill="none"></path></g><g transform="translate(809.4147773841157 656.8831261144481) rotate(0 -4.358582652426321 209.21196731646347)"><path d="M0.52 395 C-2.47 401.55, -5.42 406.16, -8.97 420.19 M-0.26 395.24 C-4.33 402.95, -6.07 411.62, -9.4 420.42" stroke="#1e1e1e" stroke-width="2" fill="none"></path></g></g><mask id="mask-ve4nSvCXt3eb01na3FEEB"><rect x="0" y="0" fill="#fff" width="918.1319426889684" height="1175.307060747375"></rect><rect x="747.6561932058105" y="849.2950934309116" fill="#000" width="114.80000305175781" height="33.6" opacity="1"></rect></mask><g transform="translate(747.6561932058105 849.2950934309117) rotate(0 57.69608545577711 16.795159075272835)"><text x="57.400001525878906" y="27.0375" font-family="Cascadia, Segoe UI Emoji" font-size="28px" fill="#1e1e1e" text-anchor="middle" style="white-space: pre;" direction="ltr" dominant-baseline="alphabetic">Attempt</text></g><g stroke-linecap="round" transform="translate(829.0283993200342 1227.8574535822963) rotate(0 135.11606222521607 98.06810967959223)"><path d="M-1.69 0.97 C82.32 0.62, 163.22 1.58, 273.1 0.3 M-1.42 1.29 C92.02 3.31, 179.75 1.98, 268.86 -0.58 M272.26 -2.8 C271.46 72.92, 273.21 146.65, 270.41 195.83 M270.29 0.13 C269.91 70.58, 271.53 136.65, 269.63 194.26 M271.79 198.55 C205.08 194.34, 140.77 197.19, -0.39 194.23 M271.68 196.53 C191.42 198.96, 113.29 200.56, -1.49 196.75 M-2.26 197.07 C-1.61 134.29, 0.96 71.95, -0.7 0.83 M0.77 197.03 C4.45 129.7, 1.51 62.49, 0.48 1.23" stroke="#1e1e1e" stroke-width="2" fill="none"></path></g><g transform="translate(898.544463071129 1309.1255632618886) rotate(0 65.59999847412115 16.799999999999955)"><text x="65.5999984741211" y="27.0375" font-family="Cascadia, Segoe UI Emoji" font-size="28px" fill="#1e1e1e" text-anchor="middle" style="white-space: pre;" direction="ltr" dominant-baseline="alphabetic">OCR/PDFs</text></g><g stroke-linecap="round" transform="translate(475.9832044735021 1225.6781622560832) rotate(0 135.11606222521607 98.06810967959223)"><path d="M-0.5 -0.71 C54.05 3.35, 111.32 5.7, 270.68 2.26 M1.14 0.55 C98.81 2.13, 197.01 3.9, 271.07 1 M271.78 3.9 C269.15 41.24, 270.79 91.27, 272.85 194.18 M270.71 -0.96 C273.27 63.13, 271.59 124.42, 271.8 195.05 M272.05 197.49 C212.47 195.2, 157.83 194.78, 2.1 196.87 M269.88 197.36 C198.02 196.16, 126.4 195.65, 1.01 196.02 M1.82 193.09 C1.93 143.7, 0.15 92.62, -0.44 -0.24 M-0.46 195.64 C-2.52 140.33, -2.24 83.61, 1.54 -0.33" stroke="#1e1e1e" stroke-width="2" fill="none"></path></g><g transform="translate(488.09926669871817 1290.1462719356755) rotate(0 123 33.60000000000002)"><text x="123" y="27.0375" font-family="Cascadia, Segoe UI Emoji" font-size="28px" fill="#1e1e1e" text-anchor="middle" style="white-space: pre;" direction="ltr" dominant-baseline="alphabetic">Upload Directly</text><text x="123" y="60.6375" font-family="Cascadia, Segoe UI Emoji" font-size="28px" fill="#1e1e1e" text-anchor="middle" style="white-space: pre;" direction="ltr" dominant-baseline="alphabetic">as Text</text></g><g stroke-linecap="round"><g transform="translate(800.6976120792633 1070.9484780949488) rotate(0 -83.9027160592068 71.9166137650343)"><path d="M0.91 1.83 C-32.41 31.43, -71.42 60.68, -168.15 144.84 M-1.5 -0.65 C-47.01 38.44, -91.76 78.82, -168.52 144.68" stroke="#1e1e1e" stroke-width="2" fill="none"></path></g><g transform="translate(800.6976120792633 1070.9484780949488) rotate(0 -83.9027160592068 71.9166137650343)"><path d="M-155.82 123.9 C-157.09 129.06, -162.15 133.32, -168.72 145.26 M-157.21 122.47 C-160.34 129.13, -162.65 135.45, -168.93 145.17" stroke="#1e1e1e" stroke-width="2" fill="none"></path></g><g transform="translate(800.6976120792633 1070.9484780949488) rotate(0 -83.9027160592068 71.9166137650343)"><path d="M-144.63 136.83 C-148.15 139.28, -155.52 140.88, -168.72 145.26 M-146.02 135.4 C-152.3 138.39, -157.72 141.12, -168.93 145.17" stroke="#1e1e1e" stroke-width="2" fill="none"></path></g></g><mask></mask><g stroke-linecap="round"><g transform="translate(800.6976120792633 1079.6656433998014) rotate(0 69.73732243882114 68.64767677571456)"><path d="M1.99 -1.26 C39.29 35.8, 86.29 82.25, 138.11 136.72 M0.25 1 C33.04 30.13, 60.68 60.91, 139.81 138.82" stroke="#1e1e1e" stroke-width="2" fill="none"></path></g><g transform="translate(800.6976120792633 1079.6656433998014) rotate(0 69.73732243882114 68.64767677571456)"><path d="M118.13 127.66 C122.14 129.81, 132.05 136.24, 139.13 138.53 M117.26 128.8 C122.54 130.41, 126.49 133.62, 139.98 139.58" stroke="#1e1e1e" stroke-width="2" fill="none"></path></g><g transform="translate(800.6976120792633 1079.6656433998014) rotate(0 69.73732243882114 68.64767677571456)"><path d="M130.2 115.55 C130.82 121.23, 137.24 131.17, 139.13 138.53 M129.32 116.68 C132.2 120.76, 133.62 126.51, 139.98 139.58" stroke="#1e1e1e" stroke-width="2" fill="none"></path></g></g><mask></mask><g transform="translate(1625.0458624346027 53.477715289210806) rotate(0 65.5999984741211 16.799999999999997)"><text x="65.5999984741211" y="27.0375" font-family="Cascadia, Segoe UI Emoji" font-size="28px" fill="#1e1e1e" text-anchor="middle" style="white-space: pre;" direction="ltr" dominant-baseline="alphabetic">Score/10</text></g><g transform="translate(1675.5483567321673 104.37425552951385) rotate(0 98.4000015258789 33.6)"><text x="98.4000015258789" y="27.0375" font-family="Cascadia, Segoe UI Emoji" font-size="28px" fill="#1e1e1e" text-anchor="middle" style="white-space: pre;" direction="ltr" dominant-baseline="alphabetic">Hightlight</text><text x="98.4000015258789" y="60.6375" font-family="Cascadia, Segoe UI Emoji" font-size="28px" fill="#1e1e1e" text-anchor="middle" style="white-space: pre;" direction="ltr" dominant-baseline="alphabetic">Improvements</text></g><g mask="url(#mask-DCGZy5pgr6EL2odfGR5Sv)" stroke-linecap="round"><g transform="translate(925.444315878615 595.9869090941519) rotate(0 270.33181996237425 -152.1539751700795)"><path d="M1.58 -0.55 C131.73 3.53, 260.75 3.97, 541.88 -0.13 M0.66 0.68 C167.69 -1.08, 337.03 -0.06, 541.08 -0.65 M538.17 -0.69 C536.77 -84.17, 538.27 -161.88, 536.54 -304.89 M541.98 -0.03 C542.42 -100.2, 537.96 -199.51, 535.88 -303.92" stroke="#1e1e1e" stroke-width="2" fill="none"></path></g><g transform="translate(925.444315878615 595.9869090941519) rotate(0 270.33181996237425 -152.1539751700795)"><path d="M546.99 -281.34 C544.21 -286.27, 539.92 -291.35, 537.4 -304.08 M545.84 -279.8 C541.19 -288.6, 539.55 -294.58, 536.4 -304.73" stroke="#1e1e1e" stroke-width="2" fill="none"></path></g><g transform="translate(925.444315878615 595.9869090941519) rotate(0 270.33181996237425 -152.1539751700795)"><path d="M529.89 -280.91 C531.25 -285.81, 531.09 -290.99, 537.4 -304.08 M528.74 -279.38 C529.41 -288.33, 533.1 -294.44, 536.4 -304.73" stroke="#1e1e1e" stroke-width="2" fill="none"></path></g></g><mask id="mask-DCGZy5pgr6EL2odfGR5Sv"><rect x="0" y="0" fill="#fff" width="1566.1079558033634" height="1000.2948594343109"></rect><rect x="1416.9079550404244" y="562.3869090941519" fill="#000" width="98.4000015258789" height="67.2" opacity="1"></rect></mask><g transform="translate(1416.907955040424 562.3869090941519) rotate(0 -220.1300316497347 -117.47607066385945)"><text x="49.20000076293945" y="27.0375" font-family="Cascadia, Segoe UI Emoji" font-size="28px" fill="#1e1e1e" text-anchor="middle" style="white-space: pre;" direction="ltr" dominant-baseline="alphabetic">Upload</text><text x="49.20000076293945" y="60.6375" font-family="Cascadia, Segoe UI Emoji" font-size="28px" fill="#1e1e1e" text-anchor="middle" style="white-space: pre;" direction="ltr" dominant-baseline="alphabetic">Answer</text></g><g transform="translate(1117.4639583513165 1276.7580490845496) rotate(0 90.19999694824219 33.60000000000002)"><text x="90.19999694824219" y="27.0375" font-family="Cascadia, Segoe UI Emoji" font-size="28px" fill="#e03131" text-anchor="middle" style="white-space: pre;" direction="ltr" dominant-baseline="alphabetic">Issue: Poor</text><text x="90.19999694824219" y="60.6375" font-family="Cascadia, Segoe UI Emoji" font-size="28px" fill="#e03131" text-anchor="middle" style="white-space: pre;" direction="ltr" dominant-baseline="alphabetic">Handwriting</text></g><g transform="translate(1494.1807688628196 305.62157750359086) rotate(0 147.60000610351562 33.6)"><text x="147.60000610351562" y="27.0375" font-family="Cascadia, Segoe UI Emoji" font-size="28px" fill="#e03131" text-anchor="middle" style="white-space: pre;" direction="ltr" dominant-baseline="alphabetic">Potential: Compare</text><text x="147.60000610351562" y="60.6375" font-family="Cascadia, Segoe UI Emoji" font-size="28px" fill="#e03131" text-anchor="middle" style="white-space: pre;" direction="ltr" dominant-baseline="alphabetic">ChatGPT &amp; LLM</text></g><g transform="translate(638.0209202578853 85.97662260709204) rotate(0 172.1999969482422 16.800000000000004)"><text x="172.1999969482422" y="27.0375" font-family="Cascadia, Segoe UI Emoji" font-size="28px" fill="#e03131" text-anchor="middle" style="white-space: pre;" direction="ltr" dominant-baseline="alphabetic">Issue: Hallucinations</text></g><g transform="translate(1368.2322533635543 10) rotate(0 114.80000305175781 33.6)"><text x="114.80000305175781" y="27.0375" font-family="Cascadia, Segoe UI Emoji" font-size="28px" fill="#e03131" text-anchor="middle" style="white-space: pre;" direction="ltr" dominant-baseline="alphabetic">Issue: Prompt </text><text x="114.80000305175781" y="60.6375" font-family="Cascadia, Segoe UI Emoji" font-size="28px" fill="#e03131" text-anchor="middle" style="white-space: pre;" direction="ltr" dominant-baseline="alphabetic">Engineering</text></g></svg>